<?xml version="1.0" encoding="UTF-8"?>
<svg xmlns="http://www.w3.org/2000/svg" width="1280" height="720" viewBox="0 0 1280 720">
  <rect width="1280" height="720" fill="#0f1115"/>
  <rect x="0" y="0" width="1280" height="72" fill="#141821"/>
  <text x="48" y="46" fill="#f3f4f6" font-family="Inter, Arial, sans-serif" font-size="28" font-weight="700">KANBAN BOARD</text>

  <rect x="40" y="104" width="386" height="560" rx="16" fill="#151c27" stroke="#273244"/>
  <rect x="447" y="104" width="386" height="560" rx="16" fill="#191b15" stroke="#3b3a2a"/>
  <rect x="854" y="104" width="386" height="560" rx="16" fill="#131f1b" stroke="#204235"/>

  <text x="64" y="146" fill="#93c5fd" font-family="Inter, Arial, sans-serif" font-size="20" font-weight="700">To Do</text>
  <text x="471" y="146" fill="#fcd34d" font-family="Inter, Arial, sans-serif" font-size="20" font-weight="700">In Progress</text>
  <text x="878" y="146" fill="#6ee7b7" font-family="Inter, Arial, sans-serif" font-size="20" font-weight="700">Done</text>

  <rect x="64" y="176" width="338" height="88" rx="12" fill="#1f2937"/>
  <rect x="64" y="276" width="338" height="88" rx="12" fill="#1f2937"/>
  <rect x="64" y="376" width="338" height="88" rx="12" fill="#1f2937"/>

  <rect x="471" y="176" width="338" height="88" rx="12" fill="#2d2a1b"/>
  <rect x="471" y="276" width="338" height="88" rx="12" fill="#2d2a1b"/>

  <rect x="878" y="176" width="338" height="88" rx="12" fill="#183126"/>
</svg>
